# xmcd
#
# Track frame offsets:
#	150
#	15827
#	32254
#	50256
#	71236
#	91113
#	108365
#	125543
#	142270
#	181347
#	200023
#	217056
#	235127
#	269704
#	291758
#	306373
#	324605
#
# Disc length: 4803 seconds
#
# Revision: 1
# Processed by: cddbd v1.5PL3 Copyright (c) Steve Scherf et al.
# Submitted via: EasyCDDAExtractor 5.0.7
#
DISCID=0012c111
DTITLE=Mc Hawer és Tekknõ - Best Of
DYEAR=2003
DGENRE=mulatós
TTITLE0=Sej haj akácfa
TTITLE1=Márminálunk babám
TTITLE2=Minek a szõke énnékem
TTITLE3=Mulatós egyveleg 1
TTITLE4=Bye bye lány
TTITLE5=Kislány vigyázz
TTITLE6=Piros bicikli
TTITLE7=100 forintnak...
TTITLE8=Mulatós egyveleg 2
TTITLE9=Elment a Lidi néni
TTITLE10=Hosszú fekete haj
TTITLE11=Se veled se nélküled
TTITLE12=Mulatós egyveleg 3
TTITLE13=A börtön árnyékában
TTITLE14=Mikor a Vodka a fejembe száll
TTITLE15=Macskajaj - Bubamara
TTITLE16=Mulatós egyveleg 4
EXTD=
EXTT0=
EXTT1=
EXTT2=
EXTT3=
EXTT4=
EXTT5=
EXTT6=
EXTT7=
EXTT8=
EXTT9=
EXTT10=
EXTT11=
EXTT12=
EXTT13=
EXTT14=
EXTT15=
EXTT16=
PLAYORDER=
